<svg xmlns="http://www.w3.org/2000/svg" viewBox="0 0 16 14"><title>searchright-arrow</title><g id="Layer_2" data-name="Layer 2"><g id="Layer_1-2" data-name="Layer 1"><path d="M1,8H12.86L9.23,12.36A1.14,1.14,0,0,0,9,12.7a1,1,0,0,0,.32,1.07,1,1,0,0,0,.73.23,1,1,0,0,0,.68-.36l5-6,.09-.15s.05-.08.07-.13a1,1,0,0,0,0-.72s0-.08-.07-.13l-.09-.15-5-6a1.13,1.13,0,0,0-.34-.27A1.07,1.07,0,0,0,10,0a1,1,0,0,0-.64.23,1.21,1.21,0,0,0-.25.3A1,1,0,0,0,9,1.3a1.14,1.14,0,0,0,.19.34L12.86,6H1a1,1,0,0,0-.71.29,1,1,0,0,0,0,1.42A1,1,0,0,0,1,8Z"/></g></g></svg>