<svg xmlns="http://www.w3.org/2000/svg" viewBox="0 0 32.3 31"><title>Asset 1</title><g id="Layer_2" data-name="Layer 2"><g id="Layer_1-2" data-name="Layer 1"><path d="M10.63,31a2.25,2.25,0,1,0-2.25-2.25A2.25,2.25,0,0,0,10.63,31Z"/><path d="M24.3,31a2.25,2.25,0,1,0-2.25-2.25A2.25,2.25,0,0,0,24.3,31Z"/><path d="M19.87,6a6.73,6.73,0,0,1-.07-1,6.73,6.73,0,0,1,.07-1H8.79l.65,2Z"/><path d="M27.3,12.5h-.42L25.63,18h-15L6.06,3.53a1.16,1.16,0,0,0-.25-.41,1.14,1.14,0,0,0-.41-.24L1.3,1.62a1,1,0,0,0-.77.07A1.06,1.06,0,0,0,0,2.28a1,1,0,0,0,.08.77,1,1,0,0,0,.59.49L4.3,4.64l4.59,14.5L7.25,20.48l-.13.13a2.61,2.61,0,0,0-.65,1.68A2.65,2.65,0,0,0,7,24,2.73,2.73,0,0,0,9.3,25H26a1.05,1.05,0,0,0,.71-.29,1,1,0,0,0,0-1.42A1.05,1.05,0,0,0,26,23H9.14a.64.64,0,0,1-.33-.1.68.68,0,0,1-.32-.57A.63.63,0,0,1,8.58,22L11,20H26.43a1,1,0,0,0,1-.78L29,12.31a7.51,7.51,0,0,1-1.7.19Z"/><path d="M27.3,10a5,5,0,1,0-5-5A5,5,0,0,0,27.3,10Z"/></g></g></svg>